<?xml version="1.0" encoding="UTF-8"?>
<!-- Generated by Pixelmator Pro 3.3.8 -->
<svg width="500" height="500" viewBox="0 0 500 500" xmlns="http://www.w3.org/2000/svg">
    <path id="path1" fill="#000000" fill-rule="evenodd" stroke="none" d="M 196.272003 188.056 L 200.651993 146.884003 L 332.928009 146.884003 L 328.548004 188.056 L 354.536011 188.056 L 358.915985 146.007996 C 360.376007 130.824005 351.90799 121.480011 334.388 121.480011 L 279.492004 121.480011 L 281.828003 98.70401 L 254.964005 98.70401 L 252.628006 121.480011 L 177.584 121.480011 L 170.576004 188.056 Z M 255.839996 182.507996 L 235.399994 166.447998 C 216.419998 190.68399 192.475998 209.955994 161.231995 224.264008 L 172.619995 248.207993 C 207.951996 231.563995 235.108002 210.832001 255.839996 182.507996 Z M 269.855988 191.268005 C 292.924011 206.451996 315.115997 225.140015 334.971985 247.039993 L 351.032013 226.015991 C 330.884003 203.824005 308.399994 186.011993 284.455994 170.243988 Z M 339.936005 350.992004 L 260.220001 350.992004 L 267.519989 282.372009 L 323 282.372009 L 325.920013 255.800003 L 184.300003 255.800003 L 181.380005 282.372009 L 239.779999 282.372009 L 232.479996 350.992004 L 149.843994 350.992004 L 146.923996 377.856018 L 337.015991 377.856018 Z"/>
</svg>
